#!OML:ASF F:\VICON\USERDATA\INSTALL\rory3\rory3.ASF
:FULLY-SPECIFIED
:DEGREES
267
root -2.63275 17.803 12.0409 63.2542 84.3684 64.4694
lowerback 12.1679 1.02536 -4.02826
upperback 1.37281 0.844705 -0.721294
thorax -5.42935 0.522182 1.37212
lowerneck -19.1583 -4.57068 -11.6816
upperneck 32.3771 -4.12172 6.47948
head 14.8786 -2.06016 4.03008
rclavicle 6.01324e-015 3.18055e-015
rhumerus -28.8864 -13.6379 -80.1152
rradius 36.3105
rwrist 4.37746
rhand -14.4266 9.71802
rfingers 7.12502
rthumb 11.7178 -19.9343
lclavicle 6.01324e-015 3.18055e-015
lhumerus -33.0912 4.07866 84.9952
lradius 33.0527
lwrist -6.53138
lhand -19.639 26.8553
lfingers 7.12502
lthumb 6.68827 56.7296
rfemur -23.048 -2.87612 11.1589
rtibia 65.8929
rfoot -6.0941 -5.91698
rtoes 3.02343
lfemur -3.2932 6.61992 -33.6645
ltibia 15.6793
lfoot -8.05178 -8.38446
ltoes 18.2473
268
root -2.51795 17.7709 12.0618 68.9779 84.4985 70.1682
lowerback 12.158 0.937088 -4.07502
upperback 1.36167 0.720611 -0.747764
thorax -5.42904 0.462336 1.39151
lowerneck -19.0884 -4.57672 -11.586
upperneck 32.3167 -4.12644 6.3521
head 14.8294 -2.06711 3.95581
rclavicle 7.8023e-015 -7.55382e-015
rhumerus -29.076 -13.4468 -80.1675
rradius 36.1929
rwrist 4.44021
rhand -14.3337 9.58647
rfingers 7.12502
rthumb 11.8073 -20.0607
lclavicle 7.8023e-015 -7.55382e-015
lhumerus -32.6769 3.47613 85.4498
lradius 33.7016
lwrist -5.79101
lhand -19.4794 26.6206
lfingers 7.12502
lthumb 6.84236 56.4901
rfemur -24.0021 -2.76795 11.013
rtibia 64.9714
rfoot -7.08182 -6.03399
rtoes 1.79556
lfemur -3.15479 6.76112 -33.7084
ltibia 16.224
lfoot -8.83356 -8.80651
ltoes 14.8426
269
root -2.40318 17.7423 12.0825 75.3469 84.5709 76.5316
lowerback 12.2185 0.87767 -4.07854
upperback 1.31882 0.632793 -0.830291
thorax -5.50222 0.420477 1.32048
lowerneck -18.9498 -4.64133 -11.5563
upperneck 32.2584 -4.27245 6.42646
head 14.7897 -2.11435 3.95352
rclavicle -7.45443e-016 -1.43125e-014
rhumerus -29.3345 -13.6928 -80.1895
rradius 36.0004
rwrist 4.67064
rhand -14.4437 9.65792
rfingers 7.12502
rthumb 11.7013 -19.9953
lclavicle -7.45443e-016 -1.43125e-014
lhumerus -32.2682 2.72659 85.9179
lradius 34.2707
lwrist -5.29729
lhand -19.8235 26.7352
lfingers 7.12502
lthumb 6.5102 56.6151
rfemur -24.8492 -2.70523 10.8887
rtibia 63.8881
rfoot -7.9764 -6.36297
rtoes 0.763479
lfemur -2.95935 6.05413 -33.815
ltibia 16.7489
lfoot -9.56033 -8.47015
ltoes 13.3692
270
root -2.28786 17.7208 12.1049 80.5094 84.4809 81.6957
lowerback 12.287 0.866127 -4.16689
upperback 1.31392 0.5974 -0.945272
thorax -5.5433 0.405604 1.2545
lowerneck -18.8261 -4.64281 -11.4439
upperneck 32.1103 -4.32972 6.42864
head 14.6963 -2.12361 3.91858
rclavicle 2.5345e-015 9.54166e-015
rhumerus -29.5059 -14.0447 -80.2163
rradius 35.7677
rwrist 4.96964
rhand -14.7117 9.74171
rfingers 7.12502
rthumb 11.4428 -19.926
lclavicle 2.5345e-015 9.54166e-015
lhumerus -31.7266 2.07296 86.3162
lradius 34.7101
lwrist -4.9046
lhand -20.2232 26.8862
lfingers 7.12502
lthumb 6.12438 56.7777
rfemur -25.6396 -2.60586 10.6919
rtibia 62.6262
rfoot -8.75944 -6.64008
rtoes 0.0724397
lfemur -2.71642 5.3982 -33.9714
ltibia 17.227
lfoot -9.99839 -8.27632
ltoes 14.6655
271
root -2.17269 17.703 12.1271 84.1381 84.5159 85.2513
lowerback 12.2932 0.82623 -4.2027
upperback 1.2959 0.540396 -0.90743
thorax -5.56347 0.379162 1.32394
lowerneck -18.8152 -4.61732 -11.5111
upperneck 32.034 -4.27217 6.43692
head 14.6547 -2.10567 3.94114
rclavicle 1.03368e-014 6.36111e-015
rhumerus -29.5875 -13.8936 -80.2458
rradius 35.5388
rwrist 5.00946
rhand -14.6919 9.60434
rfingers 7.12502
rthumb 11.4619 -20.0623
lclavicle 1.03368e-014 6.36111e-015
lhumerus -31.2057 1.59752 86.7038
lradius 35.1335
lwrist -4.46001
lhand -20.1457 26.4205
lfingers 7.12502
lthumb 6.19915 56.3097
rfemur -26.4777 -2.45526 10.7197
rtibia 61.196
rfoot -9.21782 -7.01218
rtoes -0.627635
lfemur -2.56753 5.41309 -33.8934
ltibia 17.6664
lfoot -10.4857 -8.56152
ltoes 14.6753
272
root -2.05614 17.6892 12.1487 87.5203 84.592 88.5704
lowerback 12.3086 0.779897 -4.23185
upperback 1.26778 0.476785 -0.824414
thorax -5.59924 0.349893 1.43818
lowerneck -18.839 -4.62162 -11.6438
upperneck 32.0134 -4.23887 6.4681
head 14.6525 -2.10316 3.98254
rclavicle -4.42296e-015 4.77083e-015
rhumerus -29.6985 -13.6298 -80.283
rradius 35.3072
rwrist 4.88139
rhand -14.5335 9.60614
rfingers 7.12502
rthumb 11.6146 -20.052
lclavicle -4.42296e-015 4.77083e-015
lhumerus -30.8175 0.972117 87.1435
lradius 35.7321
lwrist -3.91
lhand -20.1258 26.2638
lfingers 7.12502
lthumb 6.21841 56.1525
rfemur -27.2114 -2.30319 10.838
rtibia 59.5746
rfoot -9.52814 -7.55773
rtoes -1.78317
lfemur -2.37207 5.69043 -33.7158
ltibia 18.0247
lfoot -11.2609 -8.8709
ltoes 12.9485
273
root -1.93725 17.6781 12.1676 90.8466 84.5417 91.8652
lowerback 12.3044 0.733377 -4.34634
upperback 1.27579 0.40148 -0.810283
thorax -5.58501 0.315588 1.53042
lowerneck -18.9062 -4.58465 -11.6145
upperneck 31.9956 -4.18851 6.47148
head 14.652 -2.07685 3.98724
rclavicle 3.32964e-015 -9.14409e-015
rhumerus -29.7623 -13.5919 -80.2988
rradius 34.9963
rwrist 5.02243
rhand -14.2583 9.84255
rfingers 7.12502
rthumb 11.8801 -19.8004
lclavicle 3.32964e-015 -9.14409e-015
lhumerus -30.3865 0.220232 87.5592
lradius 36.2994
lwrist -3.29193
lhand -20.3148 26.4951
lfingers 7.12502
lthumb 6.0359 56.3891
rfemur -27.7913 -2.09345 10.7794
rtibia 57.7552
rfoot -9.77104 -7.90165
rtoes -3.80248
lfemur -2.0136 5.33378 -33.6848
ltibia 18.2134
lfoot -11.8641 -8.5817
ltoes 13.0542
274
root -1.81679 17.6722 12.1828 93.8502 84.3612 94.7866
lowerback 12.2453 0.7047 -4.5026
upperback 1.26505 0.342197 -0.878221
thorax -5.56043 0.289392 1.55729
lowerneck -18.918 -4.54021 -11.5794
upperneck 31.9623 -4.16626 6.5644
head 14.6369 -2.04929 4.02341
rclavicle -6.26172e-015 1.03368e-014
rhumerus -29.8822 -13.8284 -80.3018
rradius 34.6978
rwrist 5.34165
rhand -13.9335 10.057
rfingers 7.12502
rthumb 12.1932 -19.5676
lclavicle -6.26172e-015 1.03368e-014
lhumerus -29.9347 -0.318022 87.8448
lradius 36.7308
lwrist -3.07929
lhand -20.2153 26.3905
lfingers 7.12502
lthumb 6.132 56.2818
rfemur -28.3275 -2.02748 10.5962
rtibia 55.7831
rfoot -9.72229 -7.98946
rtoes -7.24014
lfemur -1.58306 4.46395 -33.8438
ltibia 18.2046
lfoot -12.0075 -8.22838
ltoes 15.2599
275
root -1.69756 17.6745 12.1985 96.5259 84.2633 97.4074
lowerback 12.2655 0.696058 -4.55725
upperback 1.25449 0.320402 -0.914017
thorax -5.58165 0.280409 1.55387
lowerneck -18.9062 -4.53714 -11.5758
upperneck 31.8664 -4.17519 6.59084
head 14.592 -2.04853 4.02814
rclavicle 1.98785e-016 1.59028e-015
rhumerus -30.0214 -14.0613 -80.3159
rradius 34.4314
rwrist 5.57959
rhand -14.2455 10.0157
rfingers 7.12502
rthumb 11.8924 -19.6266
lclavicle 1.98785e-016 1.59028e-015
lhumerus -29.4501 -0.74507 88.1563
lradius 37.0765
lwrist -3.09219
lhand -20.2754 26.3937
lfingers 7.12502
lthumb 6.07391 56.2867
rfemur -28.7726 -2.12392 10.6284
rtibia 53.6615
rfoot -9.46327 -8.13627
rtoes -11.5469
lfemur -1.0611 3.9746 -33.8531
ltibia 18.0315
lfoot -11.9456 -8.30476
ltoes 18.0067
276
root -1.5744 17.6798 12.2148 98.1309 84.1742 99.0029
lowerback 12.2512 0.676511 -4.63797
upperback 1.28989 0.286516 -0.923731
thorax -5.53444 0.264677 1.59509
lowerneck -18.9212 -4.5291 -11.4989
upperneck 31.7825 -4.14273 6.45134
head 14.5475 -2.04441 3.95779
rclavicle 5.06901e-015 1.94809e-014
rhumerus -30.0804 -14.0973 -80.3691
rradius 34.1664
rwrist 5.79751
rhand -14.4438 9.72394
rfingers 7.12502
rthumb 11.7012 -19.9293
lclavicle 5.06901e-015 1.94809e-014
lhumerus -28.9921 -1.23673 88.4696
lradius 37.4846
lwrist -2.98549
lhand -20.6764 26.4436
lfingers 7.12502
lthumb 5.68676 56.3473
rfemur -29.1217 -1.88742 10.6057
rtibia 51.4521
rfoot -9.2876 -8.25539
rtoes -12.6638
lfemur -0.3753 3.82967 -33.8207
ltibia 17.6235
lfoot -11.9488 -8.26622
ltoes 19.6741
277
root -1.44704 17.6785 12.2323 98.9731 84.162 99.8495
lowerback 12.1966 0.650609 -4.73577
upperback 1.33488 0.248188 -0.856373
thorax -5.4547 0.246617 1.728
lowerneck -19.0339 -4.51811 -11.4936
upperneck 31.8464 -4.08173 6.35664
head 14.5924 -2.03056 3.93038
rclavicle 2.83268e-015 -8.34896e-015
rhumerus -30.1093 -13.6868 -80.443
rradius 33.8912
rwrist 5.61905
rhand -14.3898 9.60703
rfingers 7.12502
rthumb 11.7533 -20.0432
lclavicle 2.83268e-015 -8.34896e-015
lhumerus -28.5535 -1.50836 88.7518
lradius 37.8631
lwrist -3.04397
lhand -20.4693 26.0052
lfingers 7.12502
lthumb 5.88672 55.9034
rfemur -29.3888 -1.01827 10.4032
rtibia 49.1389
rfoot -9.35633 -8.17953
rtoes -7.56477
lfemur 0.434879 3.75317 -33.7207
ltibia 17.0138
lfoot -11.9597 -8.265
ltoes 20.4008
278
root -1.32299 17.6762 12.252 100.962 84.0772 101.79
lowerback 12.1713 0.616026 -4.89184
upperback 1.33367 0.184444 -0.832795
thorax -5.43827 0.218699 1.85144
lowerneck -19.1903 -4.49809 -11.4228
upperneck 31.9757 -4.03974 6.30739
head 14.6777 -2.01001 3.91027
rclavicle 3.18055e-015 -2.0276e-014
rhumerus -30.212 -13.3967 -80.5525
rradius 33.6442
rwrist 5.33395
rhand -14.6083 9.56776
rfingers 7.12502
rthumb 11.5426 -20.0944
lclavicle 3.18055e-015 -2.0276e-014
lhumerus -28.1489 -1.60768 88.914
lradius 38.1712
lwrist -3.68344
lhand -19.8827 25.3957
lfingers 7.12502
lthumb 6.45309 55.2774
rfemur -29.6929 -0.970327 10.4237
rtibia 46.8426
rfoot -8.7652 -8.23764
rtoes -6.48868
lfemur 1.20567 3.80067 -33.6565
ltibia 16.3132
lfoot -11.8845 -8.56793
ltoes 19.8344
279
root -1.20481 17.6687 12.2712 104.664 83.9218 105.419
lowerback 12.2361 0.517395 -4.91887
upperback 1.29717 0.0418634 -0.892098
thorax -5.50321 0.150933 1.8278
lowerneck -19.2672 -4.48791 -11.3594
upperneck 32.0139 -4.03044 6.28563
head 14.7084 -2.00077 3.89329
rclavicle 8.44835e-016 -9.14409e-015
rhumerus -30.3591 -13.6287 -80.6238
rradius 33.4055
rwrist 5.44263
rhand -14.8584 9.62022
rfingers 7.12502
rthumb 11.3013 -20.0553
lclavicle 8.44835e-016 -9.14409e-015
lhumerus -27.7848 -1.79183 88.9209
lradius 38.4443
lwrist -4.61656
lhand -19.1045 24.9801
lfingers 7.12502
lthumb 7.20426 54.8375
rfemur -29.9843 -1.13661 10.3837
rtibia 44.4749
rfoot -8.01873 -8.07315
rtoes -3.37653
lfemur 1.91372 3.75416 -33.6347
ltibia 15.609
lfoot -11.9617 -8.77111
ltoes 17.3254
280
root -1.08007 17.6573 12.289 107.665 83.8761 108.334
lowerback 12.1483 0.469078 -4.86533
upperback 1.31448 -0.00867458 -0.888311
thorax -5.43251 0.123172 1.81027
lowerneck -19.2429 -4.52672 -11.5182
upperneck 31.9081 -4.09545 6.45497
head 14.6718 -2.02458 3.97604
rclavicle -1.88845e-015 -5.1684e-015
rhumerus -30.4568 -13.8864 -80.5895
rradius 33.17
rwrist 5.58711
rhand -14.9548 9.53344
rfingers 7.12502
rthumb 11.2084 -20.1472
lclavicle -1.88845e-015 -5.1684e-015
lhumerus -27.3799 -2.30251 89.1344
lradius 38.7592
lwrist -4.863
lhand -18.9547 25.085
lfingers 7.12502
lthumb 7.34888 54.9374
rfemur -30.2611 -1.29491 10.4573
rtibia 42.1097
rfoot -7.15209 -7.54877
rtoes -2.86298
lfemur 2.6036 3.34217 -33.5723
ltibia 14.9142
lfoot -12.1193 -8.51792
ltoes 14.5732
